HIERARCHY
ROOT Hips
{
	OFFSET -0.179506 -22.333345 2.821913
	CHANNELS 6 Xposition Yposition Zposition Zrotation Yrotation Xrotation 
	JOINT LeftUpLeg
	{
		OFFSET 6.951974 -9.140623 -0.681533
		CHANNELS 3 Zrotation Yrotation Xrotation
		JOINT LeftLeg
		{
			OFFSET 3.427654 -37.519855 -0.449580
			CHANNELS 3 Zrotation Yrotation Xrotation
			JOINT LeftFoot
			{
				OFFSET -1.359570 -39.796059 -4.369333
				CHANNELS 3 Zrotation Yrotation Xrotation
				JOINT LeftToe
				{
					OFFSET 2.635814 -5.579078 11.928840
					CHANNELS 3 Zrotation Yrotation Xrotation
					End Site
					{
						OFFSET 0.000000 0.000000 0.000000
					}
				}
			}
		}
	}
	JOINT RightUpLeg
	{
		OFFSET -6.767048 -9.052170 -0.431982
		CHANNELS 3 Zrotation Yrotation Xrotation
		JOINT RightLeg
		{
			OFFSET -3.829005 -38.256897 -0.885003
			CHANNELS 3 Zrotation Yrotation Xrotation
			JOINT RightFoot
			{
				OFFSET 1.577377 -39.841461 -4.231180
				CHANNELS 3 Zrotation Yrotation Xrotation
				JOINT RightToe
				{
					OFFSET -2.537174 -4.814398 12.334795
					CHANNELS 3 Zrotation Yrotation Xrotation
					End Site
					{
						OFFSET 0.000000 0.000000 0.000000
					}
				}
			}
		}
	}
	JOINT Spine
	{
		OFFSET -0.253288 10.896323 -2.669631
		CHANNELS 3 Zrotation Yrotation Xrotation
		JOINT Spine1
		{
			OFFSET 0.548704 13.518043 0.109247
			CHANNELS 3 Zrotation Yrotation Xrotation
			JOINT Spine2
			{
				OFFSET 0.145701 5.292222 2.542457
				CHANNELS 3 Zrotation Yrotation Xrotation
				JOINT Neck
				{
					OFFSET -0.277840 21.387037 -4.285703
					CHANNELS 3 Zrotation Yrotation Xrotation
					JOINT Head
					{
						OFFSET 0.515184 6.496960 5.134897
						CHANNELS 3 Zrotation Yrotation Xrotation
						End Site
						{
							OFFSET 0.000000 0.000000 0.000000
						}
					}
				}
				JOINT LeftShoulder
				{
					OFFSET 7.884473 12.174932 -3.408961
					CHANNELS 3 Zrotation Yrotation Xrotation
					JOINT LeftArm
					{
						OFFSET 9.097692 3.046888 -0.886815
						CHANNELS 3 Zrotation Yrotation Xrotation
						JOINT LeftForeArm
						{
							OFFSET 25.961220 -1.277207 -2.745643
							CHANNELS 3 Zrotation Yrotation Xrotation
							JOINT LeftHand
							{
								OFFSET 24.923361 0.898606 -0.117091
								CHANNELS 3 Zrotation Yrotation Xrotation
								End Site
								{
									OFFSET 0.000000 0.000000 0.000000
								}
							}
						}
					}
				}
				JOINT RightShoulder
				{
					OFFSET -8.175920 11.883285 -3.861528
					CHANNELS 3 Zrotation Yrotation Xrotation
					JOINT RightArm
					{
						OFFSET -9.601238 3.255117 -0.914307
						CHANNELS 3 Zrotation Yrotation Xrotation
						JOINT RightForeArm
						{
							OFFSET -25.374195 -1.332924 -2.140099
							CHANNELS 3 Zrotation Yrotation Xrotation
							JOINT RightHand
							{
								OFFSET -25.529810 0.777228 -0.555919
								CHANNELS 3 Zrotation Yrotation Xrotation
								End Site
								{
									OFFSET 0.000000 0.000000 0.000000
								}
							}
						}
					}
				}
			}
		}
	}
}
MOTION
Frames: 6
Frame Time: 0.033333
-40.482872 -20.874554 75.982109 -108.739338 -1.179096 97.845084 16.690594 8.338020 -55.409036 -3.483075 14.042511 73.715061 0.143543 11.780687 -27.444392 nan nan nan -27.820505 -4.267455 -33.373957 4.991107 5.419866 52.649508 2.724975 4.664056 -34.429121 nan nan nan 9.864968 0.072864 36.162248 1.324317 -3.973788 2.873865 1.397071 -0.615617 -3.629281 -19.967830 27.001028 -11.380949 -13.503509 18.675273 -18.884634 -26.590993 -9.326477 1.666585 -58.470733 4.502682 17.657193 13.650240 -26.443082 7.823007 0.237892 -23.435262 -19.540812 24.894150 9.215025 -0.280296 36.652624 -0.438154 2.987602 -25.966824 52.772075 -28.455125 -9.928968 25.879673 -26.233832 
-40.989288 -21.020887 75.878349 -108.251222 -1.109611 97.662069 17.086245 8.825689 -55.520673 -2.981262 14.579975 73.614549 0.184491 12.021233 -27.222040 nan nan nan -27.936742 -4.478918 -32.341687 4.877178 5.399060 52.230308 2.875672 4.777178 -34.876042 nan nan nan 9.559575 0.576495 36.173516 1.218711 -3.902436 2.997054 1.318451 -0.487358 -3.674284 -19.497985 26.899996 -11.343414 -13.328109 18.154289 -18.913587 -26.275974 -8.844229 1.830881 -58.792742 5.349406 17.812253 12.872864 -26.653066 8.999979 0.794589 -23.517929 -20.098720 25.055686 9.311074 0.178052 37.044366 -0.089977 3.266730 -27.216960 54.811252 -28.765043 -10.846935 25.982886 -26.522054 
-41.506432 -21.182199 75.776047 -107.593354 -0.960982 97.559822 17.572320 9.309939 -55.817903 -2.290184 15.252624 73.645985 0.364559 12.221601 -26.981143 nan nan nan -27.953510 -4.683421 -31.232804 4.796581 5.462177 51.791622 3.139367 4.755058 -35.297996 nan nan nan 9.266760 1.073567 36.162755 1.154876 -3.843484 2.748493 1.300887 -0.422120 -3.464105 -18.975646 26.823166 -11.529716 -13.147472 17.773420 -18.677090 -25.809040 -8.238484 1.973131 -59.184499 6.180590 17.761233 11.892932 -26.987789 10.120642 1.049274 -23.673983 -20.168537 25.139026 9.195638 0.620203 37.498431 0.467949 3.244130 -28.356825 57.024779 -28.929317 -10.921244 26.267761 -25.992017 
-42.151768 -21.328283 75.698242 -107.028846 -0.876558 97.108534 17.999431 9.931221 -55.627373 -1.496950 15.996314 73.797473 0.810124 12.371025 -26.896647 nan nan nan -28.009018 -4.840638 -29.591630 4.685991 5.703744 51.141292 3.190491 4.765301 -35.840502 nan nan nan 8.912555 1.753044 36.404052 1.051854 -3.683987 2.872616 1.265893 -0.478631 -3.625076 -18.239227 26.816994 -11.449024 -13.084718 17.161316 -18.717149 -25.369332 -7.234498 2.124069 -59.375463 6.883754 17.747024 11.154563 -27.579628 11.486189 -0.413894 -24.011211 -19.616603 25.248647 8.720094 0.791588 38.298611 1.002896 3.588366 -30.423947 59.307663 -29.502837 -10.159819 26.539565 -25.438477 
-42.688992 -21.515608 75.556137 -106.158281 -0.742920 97.154379 18.521893 10.391501 -56.308137 -1.137476 16.783807 74.136893 0.966168 12.827432 -26.640573 nan nan nan -28.144679 -5.052546 -28.435721 4.638321 5.538668 50.637374 3.286410 4.577844 -36.368096 nan nan nan 8.499947 2.319612 36.004534 1.032001 -3.614524 2.840559 1.199641 -0.506026 -3.490232 -17.374231 26.964055 -11.746643 -13.060626 16.542998 -18.305271 -24.509083 -6.130358 2.220511 -59.812353 7.652132 17.582552 10.327885 -28.445825 13.085673 -1.823908 -24.395543 -18.748052 25.192901 8.292909 0.729211 39.350293 1.319323 4.169478 -32.727274 61.864382 -30.384755 -9.435447 26.814789 -25.641706 
-43.370499 -21.764393 75.505936 -105.333647 -0.711658 96.909908 18.913588 10.741997 -56.501613 -0.534551 17.668830 74.630649 1.104096 13.051386 -26.354925 nan nan nan -28.384674 -5.220560 -26.774136 4.542820 5.551993 49.774247 3.520341 4.466748 -36.715183 nan nan nan 8.060353 2.931365 35.877186 0.992917 -3.599173 2.881946 1.143111 -0.534063 -3.450668 -16.656751 27.110617 -11.968857 -13.075625 15.906018 -17.950320 -23.727797 -5.028105 2.449413 -60.135315 8.630419 17.264737 9.491932 -29.833711 14.346366 -2.735507 -24.521349 -17.943482 25.158261 7.963951 0.774423 40.330175 1.503045 4.780339 -35.396467 64.378581 -32.184417 -8.804680 26.961452 -25.872374 
